<svg xmlns="http://www.w3.org/2000/svg" version="1.1" xmlns:xlink="http://www.w3.org/1999/xlink" viewBox="0 0 200 200"><rect width="200" height="200" fill="url('#gradient')"></rect><defs><linearGradient id="gradient" gradientTransform="rotate(45 0.5 0.5)"><stop offset="0%" stop-color="#e4eaf0"></stop><stop offset="100%" stop-color="#6a7988"></stop></linearGradient></defs><g><g fill="#e53535" transform="matrix(10.873118279569892,0,0,10.873118279569892,46.71937750398472,177.69186271134242)" stroke="#e53535" stroke-width="0.2"><path d="M6.15-4.50L3.36-4.50Q3.36-5.93 3.68-6.75Q4.00-7.58 4.73-8.18Q5.45-8.79 5.83-9.29Q6.20-9.79 6.20-10.40L6.20-10.40Q6.20-11.88 4.93-11.88L4.93-11.88Q4.35-11.88 3.98-11.45Q3.62-11.02 3.60-10.28L3.60-10.28L0.30-10.28Q0.32-12.24 1.53-13.33Q2.74-14.41 4.93-14.41L4.93-14.41Q7.11-14.41 8.31-13.41Q9.50-12.40 9.50-10.55L9.50-10.55Q9.50-9.74 9.18-9.07Q8.86-8.41 8.14-7.71L8.14-7.71L7.02-6.67Q6.54-6.21 6.36-5.73Q6.17-5.24 6.15-4.50L6.15-4.50ZM2.96-1.53L2.96-1.53Q2.96-2.26 3.48-2.72Q4.00-3.18 4.79-3.18Q5.57-3.18 6.09-2.72Q6.61-2.26 6.61-1.53Q6.61-0.81 6.09-0.35Q5.57 0.12 4.79 0.12Q4.00 0.12 3.48-0.35Q2.96-0.81 2.96-1.53Z"></path></g></g></svg>